<?xml version="1.0" encoding="utf-8"?>
<!-- Generator: Adobe Illustrator 28.3.0, SVG Export Plug-In . SVG Version: 6.00 Build 0)  -->
<svg version="1.1" id="레이어_1" xmlns="http://www.w3.org/2000/svg" xmlns:xlink="http://www.w3.org/1999/xlink" x="0px"
	 y="0px" viewBox="0 0 24 24" style="enable-background:new 0 0 24 24;" xml:space="preserve">
<style type="text/css">
	.st0{fill:#6DBAF2;}
</style>
<path class="st0" d="M18,9c-0.3,0-0.5-0.1-0.7-0.3C17.1,8.5,17,8.3,17,8V7h-1c-0.3,0-0.5-0.1-0.7-0.3C15.1,6.5,15,6.3,15,6
	s0.1-0.5,0.3-0.7C15.5,5.1,15.7,5,16,5h1V4c0-0.3,0.1-0.5,0.3-0.7C17.5,3.1,17.7,3,18,3s0.5,0.1,0.7,0.3C18.9,3.5,19,3.7,19,4v1h1
	c0.3,0,0.5,0.1,0.7,0.3C20.9,5.5,21,5.7,21,6s-0.1,0.5-0.3,0.7C20.5,6.9,20.3,7,20,7h-1v1c0,0.3-0.1,0.5-0.3,0.7
	C18.5,8.9,18.3,9,18,9z M7,17h10c0.2,0,0.4-0.1,0.5-0.3c0.1-0.2,0.1-0.4-0.1-0.5l-2.7-3.7c-0.1-0.1-0.2-0.2-0.4-0.2
	s-0.3,0.1-0.4,0.2L11.2,16l-1.8-2.5c-0.1-0.1-0.2-0.2-0.4-0.2c-0.2,0-0.3,0.1-0.4,0.2l-2,2.7c-0.1,0.2-0.1,0.3,0,0.5
	C6.7,16.9,6.8,17,7,17z M5,21c-0.5,0-1-0.2-1.4-0.6S3,19.5,3,19V5c0-0.5,0.2-1,0.6-1.4S4.5,3,5,3h8c0.3,0,0.5,0.1,0.7,0.3
	C13.9,3.5,14,3.7,14,4v3c0,0.3,0.1,0.5,0.3,0.7C14.5,7.9,14.7,8,15,8h1v1c0,0.3,0.1,0.5,0.3,0.7C16.5,9.9,16.7,10,17,10h3
	c0.3,0,0.5,0.1,0.7,0.3c0.2,0.2,0.3,0.4,0.3,0.7v8c0,0.5-0.2,1-0.6,1.4S19.6,21,19,21H5z"/>
</svg>
