<?xml version="1.0" encoding="utf-8"?>
<!-- Generator: Adobe Illustrator 28.3.0, SVG Export Plug-In . SVG Version: 6.00 Build 0)  -->
<svg version="1.1" id="레이어_1" xmlns="http://www.w3.org/2000/svg" xmlns:xlink="http://www.w3.org/1999/xlink" x="0px"
	 y="0px" viewBox="0 0 24 24" style="enable-background:new 0 0 24 24;" xml:space="preserve">
<style type="text/css">
	.st0{fill:#FFFFFF;}
</style>
<path class="st0" d="M12,22c-1.4,0-2.7-0.3-3.9-0.8S5.8,20,4.9,19.1c-0.9-0.9-1.6-2-2.1-3.2S2,13.4,2,12s0.3-2.7,0.8-3.9
	S4,5.8,4.9,4.9s2-1.6,3.2-2.1S10.6,2,12,2c0.6,0,1.1,0,1.7,0.1c0.5,0.1,1.1,0.2,1.6,0.4c0.2,0.1,0.4,0.2,0.6,0.4S16,3.4,16,3.6v1.4
	c0,0.5,0.2,1,0.6,1.4S17.4,7,17.9,7H18v0.6c0,0.4,0.1,0.7,0.4,1S19,9,19.4,9h1.3c0.2,0,0.5,0.1,0.7,0.2c0.2,0.2,0.3,0.4,0.4,0.6
	c0.1,0.4,0.1,0.7,0.2,1.1c0,0.4,0,0.7,0,1.1c0,1.4-0.3,2.7-0.8,3.9c-0.5,1.2-1.2,2.3-2.1,3.2c-0.9,0.9-2,1.6-3.2,2.1S13.4,22,12,22z
	 M12,17.5c1,0,1.9-0.2,2.7-0.7c0.8-0.5,1.5-1.1,2-1.9c0.1-0.2,0.1-0.4,0-0.6c-0.1-0.2-0.3-0.3-0.5-0.3H7.9c-0.2,0-0.4,0.1-0.5,0.3
	c-0.1,0.2-0.1,0.4,0,0.6c0.5,0.8,1.2,1.4,2,1.9C10.2,17.3,11.1,17.5,12,17.5z M8.5,11c0.4,0,0.8-0.1,1.1-0.4C9.9,10.3,10,9.9,10,9.5
	S9.9,8.7,9.6,8.4C9.3,8.1,8.9,8,8.5,8C8.1,8,7.7,8.1,7.4,8.4S7,9.1,7,9.5s0.1,0.8,0.4,1.1S8.1,11,8.5,11z M15.5,11
	c0.4,0,0.8-0.1,1.1-0.4c0.3-0.3,0.4-0.6,0.4-1.1s-0.1-0.8-0.4-1.1C16.3,8.1,15.9,8,15.5,8s-0.8,0.1-1.1,0.4S14,9.1,14,9.5
	s0.1,0.8,0.4,1.1S15.1,11,15.5,11z M20,5h-1c-0.3,0-0.5-0.1-0.7-0.3S18,4.3,18,4s0.1-0.5,0.3-0.7C18.5,3.1,18.7,3,19,3h1V2
	c0-0.3,0.1-0.5,0.3-0.7S20.7,1,21,1s0.5,0.1,0.7,0.3C21.9,1.5,22,1.7,22,2v1h1c0.3,0,0.5,0.1,0.7,0.3C23.9,3.5,24,3.7,24,4
	s-0.1,0.5-0.3,0.7C23.5,4.9,23.3,5,23,5h-1v1c0,0.3-0.1,0.5-0.3,0.7C21.5,6.9,21.3,7,21,7s-0.5-0.1-0.7-0.3S20,6.3,20,6V5z"/>
</svg>
