<?xml version="1.0" encoding="utf-8"?>
<!-- Generator: Adobe Illustrator 27.2.0, SVG Export Plug-In . SVG Version: 6.00 Build 0)  -->
<svg version="1.1" id="레이어_1" xmlns="http://www.w3.org/2000/svg" xmlns:xlink="http://www.w3.org/1999/xlink" x="0px"
	 y="0px" viewBox="0 0 24 24" style="enable-background:new 0 0 24 24;" xml:space="preserve">
<style type="text/css">
	.st0{fill:#F4BC1C;}
</style>
<path class="st0" d="M12,11c2.5,0,4.6-0.4,6.4-1.2S21,8.1,21,7s-0.9-2-2.6-2.8S14.5,3,12,3S7.4,3.4,5.6,4.2S3,5.9,3,7s0.9,2,2.6,2.8
	S9.5,11,12,11z M12,13.5c0.7,0,1.5-0.1,2.6-0.2s2-0.4,3-0.7c1-0.3,1.8-0.7,2.5-1.2s1-1.1,1-1.9V12c0,0.7-0.3,1.4-1,1.9
	c-0.7,0.5-1.5,0.9-2.5,1.2c-0.9,0.3-1.9,0.5-3,0.7S12.7,16,12,16s-1.5-0.1-2.6-0.2s-2-0.4-3-0.7c-0.9-0.3-1.8-0.7-2.4-1.2
	c-0.7-0.5-1-1.1-1-1.9V9.5c0,0.7,0.3,1.4,1,1.9s1.5,0.9,2.4,1.2c1,0.3,1.9,0.5,3,0.7S11.3,13.5,12,13.5z M12,18.5
	c0.7,0,1.5-0.1,2.6-0.2s2-0.4,3-0.7c1-0.3,1.8-0.7,2.5-1.2c0.7-0.5,1-1.1,1-1.9V17c0,0.7-0.3,1.4-1,1.9s-1.5,0.9-2.5,1.2
	c-0.9,0.3-1.9,0.5-3,0.7S12.7,21,12,21s-1.5-0.1-2.6-0.2s-2-0.4-3-0.7c-0.9-0.3-1.8-0.7-2.4-1.2S3,17.7,3,17v-2.5
	c0,0.7,0.3,1.4,1,1.9c0.7,0.5,1.5,0.9,2.4,1.2c1,0.3,1.9,0.5,3,0.7S11.3,18.5,12,18.5z"/>
</svg>
