<svg width="24" height="24" viewBox="0 0 24 24" fill="none" xmlns="http://www.w3.org/2000/svg">
    <mask id="mask0_194_2878" style="mask-type:alpha" maskUnits="userSpaceOnUse" x="0" y="0" width="24" height="24">
        <rect width="24" height="24" fill="#D9D9D9"/>
    </mask>
    <g mask="url(#mask0_194_2878)">
        <path d="M4 20C3.45 20 2.97917 19.8042 2.5875 19.4125C2.19583 19.0208 2 18.55 2 18V6C2 5.45 2.19583 4.97917 2.5875 4.5875C2.97917 4.19583 3.45 4 4 4H20C20.55 4 21.0208 4.19583 21.4125 4.5875C21.8042 4.97917 22 5.45 22 6V12.275C21.4333 11.975 20.8208 11.8667 20.1625 11.95C19.5042 12.0333 18.9333 12.3167 18.45 12.8L14.95 16.325L14.2 15.6C13.6167 15.0167 12.9167 14.7292 12.1 14.7375C11.2833 14.7458 10.5833 15.0417 10 15.625C9.4 16.225 9.1 16.9333 9.1 17.75C9.1 18.5667 9.39167 19.2667 9.975 19.85L10.125 20H4ZM4 8V12H20V8H4ZM14.95 19.15L19.875 14.225C20.075 14.025 20.3125 13.9292 20.5875 13.9375C20.8625 13.9458 21.1 14.05 21.3 14.25C21.4833 14.45 21.5792 14.6833 21.5875 14.95C21.5958 15.2167 21.5 15.45 21.3 15.65L15.65 21.3C15.45 21.5 15.2167 21.6 14.95 21.6C14.6833 21.6 14.45 21.5 14.25 21.3L11.4 18.45C11.2167 18.2667 11.1208 18.0375 11.1125 17.7625C11.1042 17.4875 11.2 17.25 11.4 17.05C11.5833 16.8667 11.8125 16.775 12.0875 16.775C12.3625 16.775 12.6 16.8667 12.8 17.05L14.95 19.15Z" fill="#3CE022"/>
    </g>
</svg>
