<?xml version="1.0" encoding="utf-8"?>
<!-- Generator: Adobe Illustrator 27.2.0, SVG Export Plug-In . SVG Version: 6.00 Build 0)  -->
<svg version="1.1" id="레이어_1" xmlns="http://www.w3.org/2000/svg" xmlns:xlink="http://www.w3.org/1999/xlink" x="0px"
	 y="0px" viewBox="0 0 64 64" style="enable-background:new 0 0 64 64;" xml:space="preserve">
<style type="text/css">
	.st0{fill:url(#SVGID_1_);}
	.st1{fill:url(#SVGID_00000094605146200476507540000005930994274356774551_);}
	.st2{fill:url(#SVGID_00000059279473919474509330000015316377479677885593_);}
	.st3{fill:url(#SVGID_00000108269908986129302580000016157632689788880821_);}
</style>
<g>
	
		<radialGradient id="SVGID_1_" cx="1599.1187" cy="-11480.7217" r="87.9465" gradientTransform="matrix(0 -0.417 -0.46 0 -5276.6899 697.2497)" gradientUnits="userSpaceOnUse">
		<stop  offset="0" style="stop-color:#D3E6F6"/>
		<stop  offset="6.755698e-02" style="stop-color:#CBE1F5"/>
		<stop  offset="0.1717" style="stop-color:#B6D6F1"/>
		<stop  offset="0.25" style="stop-color:#A1CBED"/>
		<stop  offset="0.3434" style="stop-color:#8EBCE3"/>
		<stop  offset="0.5307" style="stop-color:#5F95CC"/>
		<stop  offset="0.7" style="stop-color:#2F6EB3"/>
		<stop  offset="0.8149" style="stop-color:#1F5BA2"/>
		<stop  offset="1" style="stop-color:#00367F"/>
	</radialGradient>
	<path class="st0" d="M13.8,18.3c-1.1,2.2,0,6.7,1.4,8.8l19,29.9H20.4c-2.2,0-4.3-1.3-5.3-2.7L4.7,38c-1-1.5-0.9-3.9,0-5.4
		L13.8,18.3z"/>
	
		<radialGradient id="SVGID_00000072242887315523272530000011742912485219876481_" cx="6017.8169" cy="2023.8278" r="57.7297" gradientTransform="matrix(0.4492 0 0 0.4492 -2669.042 -895.7936)" gradientUnits="userSpaceOnUse">
		<stop  offset="0" style="stop-color:#D3E6F6"/>
		<stop  offset="6.755698e-02" style="stop-color:#CBE1F5"/>
		<stop  offset="0.1717" style="stop-color:#B6D6F1"/>
		<stop  offset="0.25" style="stop-color:#A1CBED"/>
		<stop  offset="0.3434" style="stop-color:#8EBCE3"/>
		<stop  offset="0.5307" style="stop-color:#5F95CC"/>
		<stop  offset="0.7" style="stop-color:#2F6EB3"/>
		<stop  offset="0.8149" style="stop-color:#1F5BA2"/>
		<stop  offset="1" style="stop-color:#00367F"/>
	</radialGradient>
	<path style="fill:url(#SVGID_00000072242887315523272530000011742912485219876481_);" d="M21.9,33c-0.5,0.8-1,2.7-0.2,4.2
		l-6.4-10.1c-1.4-2.2-2.5-6.7-1.4-8.8l1.1-1.8c1-1.6,3-2.7,5.4-2.7h13.7L21.9,33z"/>
	
		<radialGradient id="SVGID_00000014635128785687499130000004747949191071769488_" cx="1593.3145" cy="-9215.7725" r="87.9321" gradientTransform="matrix(0 0.417 0.46 0 4298.813 -630.8337)" gradientUnits="userSpaceOnUse">
		<stop  offset="0" style="stop-color:#D3E6F6"/>
		<stop  offset="6.755698e-02" style="stop-color:#CBE1F5"/>
		<stop  offset="0.1717" style="stop-color:#B6D6F1"/>
		<stop  offset="0.25" style="stop-color:#A1CBED"/>
		<stop  offset="0.3434" style="stop-color:#8EBCE3"/>
		<stop  offset="0.5307" style="stop-color:#5F95CC"/>
		<stop  offset="0.7" style="stop-color:#2F6EB3"/>
		<stop  offset="0.8149" style="stop-color:#1F5BA2"/>
		<stop  offset="1" style="stop-color:#00367F"/>
	</radialGradient>
	<path style="fill:url(#SVGID_00000014635128785687499130000004747949191071769488_);" d="M50.2,45.7c1.1-2.2,0-6.7-1.4-8.8L29.7,7
		h13.9c2.2,0,4.3,1.3,5.3,2.7L59.3,26c1,1.5,0.9,3.9,0,5.4L50.2,45.7z"/>
	
		<radialGradient id="SVGID_00000034076497896522145620000014442771443171409838_" cx="3698.4128" cy="2029.2101" r="57.7362" gradientTransform="matrix(-0.4492 0 0 -0.4492 1691.1647 962.2096)" gradientUnits="userSpaceOnUse">
		<stop  offset="0" style="stop-color:#D3E6F6"/>
		<stop  offset="6.755698e-02" style="stop-color:#CBE1F5"/>
		<stop  offset="0.1717" style="stop-color:#B6D6F1"/>
		<stop  offset="0.25" style="stop-color:#A1CBED"/>
		<stop  offset="0.3434" style="stop-color:#8EBCE3"/>
		<stop  offset="0.5307" style="stop-color:#5F95CC"/>
		<stop  offset="0.7" style="stop-color:#2F6EB3"/>
		<stop  offset="0.8149" style="stop-color:#1F5BA2"/>
		<stop  offset="1" style="stop-color:#00367F"/>
	</radialGradient>
	<path style="fill:url(#SVGID_00000034076497896522145620000014442771443171409838_);" d="M42.1,31c0.5-0.8,1-2.7,0.2-4.2l6.4,10.1
		c1.4,2.2,2.5,6.7,1.4,8.8L49,47.5c-1,1.6-3,2.7-5.4,2.7H29.9L42.1,31z"/>
</g>
</svg>
