<?xml version="1.0" encoding="utf-8"?>
<!-- Generator: Adobe Illustrator 27.2.0, SVG Export Plug-In . SVG Version: 6.00 Build 0)  -->
<svg version="1.1" id="레이어_1" xmlns="http://www.w3.org/2000/svg" xmlns:xlink="http://www.w3.org/1999/xlink" x="0px"
	 y="0px" viewBox="0 0 64 64" style="enable-background:new 0 0 64 64;" xml:space="preserve">
<style type="text/css">
	.st0{fill:#F8B500;}
</style>
<path class="st0" d="M59.1,32.5l-0.5-0.3c-1.7-1.6-4-2.4-7-2.2c-2.6,0.2-4.6,1.2-6.1,2.1c0,0,0,0,0-0.1c0-0.8,0.1-1.7,0.2-2.5
	c0.1-0.9,0.2-1.7,0.2-2.6c0-0.8-0.1-1.6-0.4-2.3c-0.1-0.2-0.2-0.3-0.4-0.3c-0.8,0-2.4,0.6-2.8,0.9c0,0-0.2,0.5-0.2,0.5
	c0,0.9-0.2,3.5-0.4,3.8c0,0-0.1,0.3-0.1,0.3c-0.3,3.7-0.4,6.9,0,9.6c0,0.3,0.6,0.7,1,0.8c0.5,0.2,1.9-0.2,2.7-0.5c0,0,0.3,0,0.3,0
	c0.3,0,0.4-0.2,0.4-0.5c0,0,0-0.8,0-0.8c0.6-2.4,3-5.2,5.8-5.6c1.6-0.3,2.8,0.2,3.8,1.2c0.1,0.2,0.4,1.9-0.6,3.9
	c-0.8,1.5-2.3,2.7-4.4,3.5c-1.9,0.7-4.1,1-6.7,0.9c-0.1-0.1-2.5-1.7-2.5-1.7c-2.1-1.5-4.7-3.3-7-4.2c-0.4-0.2-1.2-0.8-1.6-1.1
	l-0.2-0.2c-1.4-1.1-3.9-2.8-6-4.2c0,0-0.9-0.6-1.1-0.7c0-0.1,0-0.2,0-0.2c0.1-0.1,1.4-0.8,1.4-0.8c1.8-1.1,2.7-1.6,2.8-1.9
	c0,0,0.2-0.1,0.2-0.1c0,0,4.5-2.6,4.5-2.6c4.3-2.4,9.2-5.1,11.8-7.8c0,0,0.1-0.4,0.1-0.4l0.1-0.4c0.2-0.6,0.2-1,0-1.5
	c0-0.1-0.2-0.3-0.3-0.3c-2-0.2-4.6,1-7,3.2c-0.5,0.5-1,0.7-1.5,1L37,18.6c-2.6,1.5-8.5,5.1-11.6,7.1c0.2-3.3,0.8-8,1.6-11.9L27,13.3
	c0,0-0.3-0.6-0.3-0.6l-0.2-0.4l-0.1,0c-0.6-0.3-1.1-0.2-1.5-0.1l-0.6,0.2l-0.8,0.3c-0.2,0-0.3,0.1-0.3,0.3c-1.5,3.5-2.7,9.4-3,14.1
	c-2.9-1.9-5.6-3.2-7-3.9l0,0l-0.2,0c-0.5-0.1-1.1-0.4-1.6-0.8c-0.1,0-1.1-0.7-1.1-0.7l-1.7-1.1c0,0-0.5-0.1-0.5-0.1
	c-0.7,0.1-2.1,1.1-2.6,1.7c-0.1,0.1-0.1,0.2-0.1,0.3c0,0.1,0,0.3,0.1,0.4l0.1,0.3l0.1,0.2c0.8,0.8,2.9,2.2,4.9,3.3l2.3,1.2l3.6,2
	c0,0,0.6,0.5,0.6,0.5l0.4,0.2c0,0,0,0,0.1,0c-1,0.6-6.5,4.4-6.5,4.4l-3.4,2.3c-0.3,0.2-1.7,0.8-2,0.9c-0.7,0.3-1.3,0.8-1.5,1.3
	L4,39.8l0.1,0.1l0.3,0.2c0,0,0.4,0.2,0.4,0.2l0.4,0.3c0,0,0.4,0.1,0.4,0.1c0.6,0,1.5-0.3,3.2-1.1c1.5-0.7,5.7-3.2,7.5-4.3l0.8-0.5
	c0.3,0,0.7-0.2,1-0.5c0.4-0.3,1.1-0.8,1.6-1c0,0,0.3-0.2,0.5-0.3c0,0.1,0,0.2,0,0.2c0.1,5.5,0.4,9.4,1,12.5l0,0.1L21,46
	c0.3,0.4,0.6,1.7,0.9,2.9l0.7,2.3c0,0,0.2,0.2,0.2,0.2c0.4,0.3,1.6,0.7,2.4,0.6l0.2,0l0.1-0.3c0.1-0.3,0.1-0.7,0.1-1
	c0-0.4,0-0.9-0.1-1.4l-0.1-0.8c-0.2-3.8-0.5-9.3-0.5-13v-0.3c0.6,0.4,3.5,2.2,3.5,2.2c4.8,3.1,12.1,7.8,16.5,9.1
	c0.2,0.1,0.5,0,0.6-0.1c0,0,0.7-0.4,0.7-0.4l0.1-0.1c0.3-0.1,0.4-0.5,0.5-1c3.7-0.2,8.9-1.6,11.6-5.1c1.1-1.3,1.6-3,1.6-4.4
	C60,34.1,59.7,33.1,59.1,32.5"/>
</svg>
