<?xml version="1.0" encoding="utf-8"?>
<!-- Generator: Adobe Illustrator 27.2.0, SVG Export Plug-In . SVG Version: 6.00 Build 0)  -->
<svg version="1.1" id="레이어_1" xmlns="http://www.w3.org/2000/svg" xmlns:xlink="http://www.w3.org/1999/xlink" x="0px"
	 y="0px" viewBox="0 0 64 64" style="enable-background:new 0 0 64 64;" xml:space="preserve">
<style type="text/css">
	.st0{fill:#FFFFFF;}
	.st1{fill:#0098D9;}
	.st2{fill:#EA5703;}
	.st3{fill:#004B9D;}
</style>
<g>
	<g>
		<g>
			<path class="st0" d="M17.6,5.6c-1.5,0.8-2.6,2.1-3.2,3.7L4.3,39.6c-0.5,1.6-0.4,3.3,0.3,4.8c0.8,1.5,2.1,2.6,3.7,3.2l33.2,11.1
				c1.6,0.5,3.3,0.4,4.8-0.3c1.5-0.8,2.6-2.1,3.2-3.7l10.1-30.4c1.1-3.3-0.7-6.9-4-8L22.5,5.2C20.8,4.7,19.1,4.8,17.6,5.6"/>
			<path class="st1" d="M33.9,34.8c-1.8,2-4.1,3.6-6.7,4.6L25.7,40V25.9l1.5,0.6c2.6,1,4.9,2.6,6.7,4.6c1.3-2.1,2.1-4.5,2.3-7.1
				c0.4-6.8-3.8-13-9.6-15.1l-4.8-1.6c-2.2-0.7-4.5,0.5-5.2,2.6L6.3,40.4c-0.7,2.2,0.5,4.5,2.7,5.2l23,7.7c2.4-2.5,3.9-5.8,4.1-9.5
				C36.3,40.5,35.5,37.4,33.9,34.8 M20.5,40.9h-2.3V25.1h2.3V40.9z"/>
			<path class="st2" d="M32.5,32.9c-1.3-1.5-2.8-2.8-4.6-3.7v7.4C29.7,35.7,31.2,34.5,32.5,32.9"/>
			<path class="st3" d="M54.9,18.4l-21.1-7.1c2.8,3.1,4.6,7.2,4.6,11.8c0,3.6-1.1,7-3,9.9c1.9,2.9,3.1,6.3,3.1,9.9
				c0,4.3-1.5,8.2-4.1,11.2l7.9,2.7c2.2,0.7,4.5-0.5,5.2-2.6l10.2-30.4C58.3,21.5,57.1,19.1,54.9,18.4 M49.3,40.8l-2.9,0l-5.9-7.9
				l6-7.9l2.9,0l-6,7.9L49.3,40.8z"/>
		</g>
	</g>
</g>
</svg>
