<?xml version="1.0" encoding="utf-8"?>
<!-- Generator: Adobe Illustrator 27.2.0, SVG Export Plug-In . SVG Version: 6.00 Build 0)  -->
<svg version="1.1" id="레이어_1" xmlns="http://www.w3.org/2000/svg" xmlns:xlink="http://www.w3.org/1999/xlink" x="0px"
	 y="0px" viewBox="0 0 64 64" style="enable-background:new 0 0 64 64;" xml:space="preserve">
<style type="text/css">
	.st0{fill:url(#SVGID_1_);}
	.st1{fill:url(#SVGID_00000044151929005875680650000015011786117030316974_);}
	.st2{fill:url(#SVGID_00000127730724930455399110000013332917617367620743_);}
</style>
<g>
	
		<linearGradient id="SVGID_1_" gradientUnits="userSpaceOnUse" x1="-74.5837" y1="-871.4045" x2="-96.0649" y2="-849.9232" gradientTransform="matrix(1.4676 0 0 1.4676 156.7639 1296.7385)">
		<stop  offset="0.1" style="stop-color:#FFFFFF"/>
		<stop  offset="0.2532" style="stop-color:#C6ECF8"/>
		<stop  offset="0.4572" style="stop-color:#80D4EF"/>
		<stop  offset="0.6414" style="stop-color:#49C2E7"/>
		<stop  offset="0.7989" style="stop-color:#21B4E2"/>
		<stop  offset="0.9236" style="stop-color:#09ACDF"/>
		<stop  offset="1" style="stop-color:#00A9DE"/>
	</linearGradient>
	<path class="st0" d="M56.4,31.8c-0.7-6.7-4.4-11.3-11.5-11.7c-3.8-0.2-8.6,1.4-12.2,6.3c3-3.7,7.3-4.5,10.4-2.7
		c4.8,2.8,4.6,12.5-1.9,18.6c-1.6,1.5-7.6,6.3-16.2,4.3c-8.6-2-14.6-9.6-15.2-17.8l0,0c-0.3-2.6,0.3-5.6,1.6-8.5
		c-1.9,3.5-3,7.4-3,11.7c0,13.3,10.7,24,24,24c13.3,0,24-10.7,24-24C56.4,32,56.4,31.9,56.4,31.8z"/>
	
		<linearGradient id="SVGID_00000072253320834746762920000007461573830164721543_" gradientUnits="userSpaceOnUse" x1="302.3426" y1="-855.1616" x2="313.2954" y2="-874.6779" gradientTransform="matrix(1.4676 0 0 1.4676 -418.5269 1296.7385)">
		<stop  offset="0" style="stop-color:#FFFFFF"/>
		<stop  offset="1" style="stop-color:#00A9DE"/>
	</linearGradient>
	<path style="fill:url(#SVGID_00000072253320834746762920000007461573830164721543_);" d="M32.4,8.1c-9,0-16.9,5-21,12.4
		c-1.3,2.9-1.9,5.8-1.6,8.5c0.4,3.8,2.5,6.8,6.5,7.8c5.9,1.5,10.5-1.8,15.9-9.8c0.1-0.2,0.3-0.4,0.4-0.5c3.6-4.9,8.4-6.5,12.2-6.3
		c7.1,0.4,10.8,5,11.5,11.7C56.3,18.7,45.6,8.1,32.4,8.1z"/>
	
		<linearGradient id="SVGID_00000089538731421060400270000003238860935246456731_" gradientUnits="userSpaceOnUse" x1="-94.8006" y1="-853.9464" x2="-79.4453" y2="-869.3016" gradientTransform="matrix(1.4676 0 0 1.4676 156.7639 1296.7385)">
		<stop  offset="5.000000e-02" style="stop-color:#FFFFFF"/>
		<stop  offset="0.1547" style="stop-color:#CBEEF8"/>
		<stop  offset="0.2771" style="stop-color:#96DCF1"/>
		<stop  offset="0.4011" style="stop-color:#68CCEB"/>
		<stop  offset="0.5242" style="stop-color:#43BFE7"/>
		<stop  offset="0.6462" style="stop-color:#25B6E3"/>
		<stop  offset="0.7669" style="stop-color:#11AFE0"/>
		<stop  offset="0.8856" style="stop-color:#04AADF"/>
		<stop  offset="1" style="stop-color:#00A9DE"/>
	</linearGradient>
	<path style="fill:url(#SVGID_00000089538731421060400270000003238860935246456731_);" d="M16.3,36.7c-4.1-1-6.2-4.1-6.5-7.8l0,0
		c0.6,8.2,6.6,15.8,15.2,17.8c8.5,2,14.5-2.8,16.2-4.3c6.6-6.1,6.7-15.8,1.9-18.6c-3.1-1.8-7.4-1-10.4,2.7c-0.1,0.2-0.3,0.4-0.4,0.5
		C26.9,34.9,22.2,38.2,16.3,36.7z"/>
</g>
</svg>
