<?xml version="1.0" encoding="utf-8"?>
<!-- Generator: Adobe Illustrator 28.2.0, SVG Export Plug-In . SVG Version: 6.00 Build 0)  -->
<svg version="1.1" id="레이어_1" xmlns="http://www.w3.org/2000/svg" xmlns:xlink="http://www.w3.org/1999/xlink" x="0px"
	 y="0px" viewBox="0 0 250 70" style="enable-background:new 0 0 250 70;" xml:space="preserve">
<style type="text/css">
	.st0{fill:#1892EB;}
</style>
<g>
	<polygon class="st0" points="74.26,38.05 74.26,27.65 83.26,20.05 98.26,23.05 103.26,32.05 	"/>
	<path d="M100.9,44.83l3.74,4.46c-3.38,4.03-8.64,6.19-14.98,6.19c-12.31,0-20.52-8.14-20.52-19.51c0-11.31,8.06-19.44,19.15-19.44
		c10.44,0,18.58,7.34,18.79,18.72l-30.31,5.9c1.94,5.26,6.7,8.28,13.11,8.28C94.35,49.44,98.09,47.93,100.9,44.83z M75.84,35.61
		v0.72l24.41-4.61c-1.22-5.47-5.76-9.36-11.95-9.36C81.03,22.36,75.84,27.62,75.84,35.61z"/>
	<path d="M153.27,35.97c0,11.74-8.14,19.51-19.3,19.51c-5.4,0-10.15-2.09-13.32-6.19v19.73h-6.91V16.89h6.62v6.05
		c3.1-4.25,7.99-6.41,13.61-6.41C145.13,16.53,153.27,24.31,153.27,35.97z M146.29,35.97c0-8.06-5.54-13.39-12.89-13.39
		c-7.27,0-12.82,5.33-12.82,13.39c0,8.14,5.54,13.46,12.82,13.46C140.74,49.44,146.29,44.11,146.29,35.97z"/>
	<path d="M197.84,16.89v38.16h-6.62v-6.05c-3.1,4.32-7.99,6.48-13.61,6.48c-11.16,0-19.3-7.85-19.3-19.51s8.14-19.44,19.3-19.44
		c5.4,0,10.15,2.02,13.32,6.12v-5.76H197.84z M191,35.97c0-8.14-5.54-13.39-12.82-13.39c-7.34,0-12.89,5.26-12.89,13.39
		s5.54,13.46,12.89,13.46C185.46,49.44,191,44.11,191,35.97z"/>
	<path d="M241.52,16.89v32.98c0,13.47-6.41,19.59-18.72,19.59c-6.62,0-13.32-1.94-17.35-5.69l3.38-5.33
		c3.31,3.02,8.28,4.9,13.61,4.9c8.42,0,12.17-4.1,12.17-12.75v-2.81c-2.81,3.67-7.42,5.69-12.6,5.69c-9.86,0-16.42-5.33-16.42-16.56
		V16.89h6.91v19.23c0,7.42,3.74,11.16,10.3,11.16c7.2,0,11.81-4.46,11.81-12.67V16.89H241.52z"/>
	<rect x="55.59" y="16.89" width="6.91" height="38.16"/>
	<ellipse class="st0" cx="59.04" cy="5.05" rx="4.71" ry="4.5"/>
	<path d="M40.66,39.43c-1.34,6.15-6.27,10.01-12.51,10.01c-7.27,0-12.82-5.33-12.82-13.46c0-6.97,4.14-11.89,9.96-13.1v-6.04
		c-4.16,0.72-7.73,2.75-10.18,6.1v-6.05H8.48v52.13h6.91V49.29c3.17,4.1,7.92,6.19,13.32,6.19c10.02,0,17.58-6.28,19.03-16.06H40.66
		z"/>
	<path class="st0" d="M28.72,16.53v19.44h19.3C48.02,35.97,48.75,16.53,28.72,16.53z"/>
</g>
</svg>
