<?xml version="1.0" encoding="utf-8"?>
<!-- Generator: Adobe Illustrator 28.3.0, SVG Export Plug-In . SVG Version: 6.00 Build 0)  -->
<svg version="1.1" id="레이어_1" xmlns="http://www.w3.org/2000/svg" xmlns:xlink="http://www.w3.org/1999/xlink" x="0px"
	 y="0px" viewBox="0 0 24 24" style="enable-background:new 0 0 24 24;" xml:space="preserve">
<style type="text/css">
	.st0{fill:#1892EB;}
</style>
<path class="st0" d="M11.3,12l2.4-2.4C13.9,9.4,14,9.2,14,8.9c0-0.3-0.1-0.5-0.3-0.7C13.5,8,13.3,7.9,13,7.9S12.5,8,12.3,8.2
	l-3.1,3.1C9,11.5,8.9,11.7,8.9,12s0.1,0.5,0.3,0.7l3.1,3.1c0.2,0.2,0.4,0.3,0.7,0.3s0.5-0.1,0.7-0.3c0.2-0.2,0.3-0.4,0.3-0.7
	s-0.1-0.5-0.3-0.7L11.3,12z M12,2c1.4,0,2.7,0.3,3.9,0.8s2.3,1.2,3.2,2.1s1.6,2,2.1,3.2C21.7,9.3,22,10.6,22,12
	c0,1.4-0.3,2.7-0.8,3.9c-0.5,1.2-1.2,2.3-2.1,3.2c-0.9,0.9-2,1.6-3.2,2.1S13.4,22,12,22c-1.4,0-2.7-0.3-3.9-0.8S5.8,20,4.9,19.1
	c-0.9-0.9-1.6-2-2.1-3.2S2,13.4,2,12c0-1.4,0.3-2.7,0.8-3.9S4,5.8,4.9,4.9s2-1.6,3.2-2.1S10.6,2,12,2z"/>
</svg>
