<svg width="24" height="24" viewBox="0 0 24 24" fill="none" xmlns="http://www.w3.org/2000/svg">
    <mask id="mask0_495_1840" style="mask-type:alpha" maskUnits="userSpaceOnUse" x="0" y="0" width="24" height="24">
        <rect width="24" height="24" fill="#1892EB"/>
    </mask>
    <g mask="url(#mask0_495_1840)">
        <path d="M10 12C8.9 12 7.95833 11.6083 7.175 10.825C6.39167 10.0417 6 9.1 6 8C6 6.9 6.39167 5.95833 7.175 5.175C7.95833 4.39167 8.9 4 10 4C11.1 4 12.0417 4.39167 12.825 5.175C13.6083 5.95833 14 6.9 14 8C14 9.1 13.6083 10.0417 12.825 10.825C12.0417 11.6083 11.1 12 10 12ZM4 20C3.45 20 2.97917 19.8042 2.5875 19.4125C2.19583 19.0208 2 18.55 2 18V17.2C2 16.65 2.14167 16.1333 2.425 15.65C2.70833 15.1667 3.1 14.8 3.6 14.55C4.45 14.1167 5.40833 13.75 6.475 13.45C7.54167 13.15 8.71667 13 10 13C10.5 13 10.9875 13.025 11.4625 13.075C11.9375 13.125 12.4 13.2 12.85 13.3L11.325 14.825C10.7417 15.4083 10.45 16.1167 10.45 16.95C10.45 17.7833 10.7417 18.4917 11.325 19.075L12.25 20H4ZM15.55 17.6L19.9 13.25C20.0833 13.0667 20.3167 12.975 20.6 12.975C20.8833 12.975 21.1167 13.0667 21.3 13.25C21.4833 13.4333 21.575 13.6667 21.575 13.95C21.575 14.2333 21.4833 14.4667 21.3 14.65L16.25 19.7C16.05 19.9 15.8167 20 15.55 20C15.2833 20 15.05 19.9 14.85 19.7L12.8 17.65C12.6167 17.4667 12.525 17.2333 12.525 16.95C12.525 16.6667 12.6167 16.4333 12.8 16.25C12.9833 16.0667 13.2167 15.975 13.5 15.975C13.7833 15.975 14.0167 16.0667 14.2 16.25L15.55 17.6Z" fill="#1892EB"/>
    </g>
</svg>
