<svg width="20" height="20" viewBox="0 0 20 20" fill="none" xmlns="http://www.w3.org/2000/svg">
    <path d="M10.675 10L8.3 12.375C8.11667 12.5583 8.025 12.7875 8.025 13.0625C8.025 13.3375 8.11667 13.575 8.3 13.775C8.5 13.975 8.7375 14.075 9.0125 14.075C9.2875 14.075 9.525 13.975 9.725 13.775L12.8 10.7C13 10.5 13.1 10.2667 13.1 10C13.1 9.73333 13 9.5 12.8 9.3L9.7 6.2C9.5 6 9.26667 5.90417 9 5.9125C8.73333 5.92083 8.5 6.025 8.3 6.225C8.11667 6.425 8.02083 6.65833 8.0125 6.925C8.00417 7.19167 8.1 7.425 8.3 7.625L10.675 10ZM10 20C8.61667 20 7.31667 19.7375 6.1 19.2125C4.88333 18.6875 3.825 17.975 2.925 17.075C2.025 16.175 1.3125 15.1167 0.7875 13.9C0.2625 12.6833 0 11.3833 0 10C0 8.61667 0.2625 7.31667 0.7875 6.1C1.3125 4.88333 2.025 3.825 2.925 2.925C3.825 2.025 4.88333 1.3125 6.1 0.7875C7.31667 0.2625 8.61667 0 10 0C11.3833 0 12.6833 0.2625 13.9 0.7875C15.1167 1.3125 16.175 2.025 17.075 2.925C17.975 3.825 18.6875 4.88333 19.2125 6.1C19.7375 7.31667 20 8.61667 20 10C20 11.3833 19.7375 12.6833 19.2125 13.9C18.6875 15.1167 17.975 16.175 17.075 17.075C16.175 17.975 15.1167 18.6875 13.9 19.2125C12.6833 19.7375 11.3833 20 10 20Z" fill="#1892EB"/>
</svg>
