<?xml version="1.0" encoding="utf-8"?>
<!-- Generator: Adobe Illustrator 28.3.0, SVG Export Plug-In . SVG Version: 6.00 Build 0)  -->
<svg version="1.1" id="레이어_1" xmlns="http://www.w3.org/2000/svg" xmlns:xlink="http://www.w3.org/1999/xlink" x="0px"
	 y="0px" viewBox="0 0 24 24" style="enable-background:new 0 0 24 24;" xml:space="preserve">
<style type="text/css">
	.st0{fill:#FFFFFF;}
</style>
<path class="st0" d="M19.8,22.6l-4.2-4.1c-0.6,0.2-1.2,0.3-1.8,0.4C13.2,19,12.6,19,12,19c-2.2,0-4.3-0.6-6.1-1.8
	C4,16,2.6,14.4,1.5,12.4c-0.1-0.1-0.1-0.3-0.2-0.5c0-0.2-0.1-0.3-0.1-0.5c0-0.2,0-0.3,0.1-0.5c0-0.2,0.1-0.3,0.2-0.5
	c0.4-0.7,0.8-1.3,1.2-1.9C3.1,8,3.6,7.5,4.2,7L1.4,4.2l1.4-1.4l18.4,18.4L19.8,22.6z M12,16c0.2,0,0.4,0,0.5,0c0.2,0,0.3,0,0.5-0.1
	l-5.4-5.4c0,0.2-0.1,0.3-0.1,0.5c0,0.2,0,0.3,0,0.5c0,1.2,0.4,2.3,1.3,3.2S10.8,16,12,16z M19.3,16.5l-3.2-3.2
	c0.1-0.3,0.2-0.6,0.3-0.9c0.1-0.3,0.1-0.6,0.1-0.9c0-1.2-0.4-2.3-1.3-3.2S13.2,7,12,7c-0.3,0-0.6,0-0.9,0.1
	c-0.3,0.1-0.6,0.2-0.9,0.3L7.7,4.8c0.7-0.3,1.4-0.5,2.1-0.6C10.5,4.1,11.2,4,12,4c2.2,0,4.3,0.6,6.1,1.8c1.9,1.2,3.3,2.8,4.4,4.8
	c0.1,0.1,0.1,0.3,0.2,0.4c0,0.2,0.1,0.3,0.1,0.5c0,0.2,0,0.3,0,0.5c0,0.2-0.1,0.3-0.2,0.4c-0.4,0.8-0.9,1.5-1.4,2.2
	S20,15.9,19.3,16.5z M14.7,11.8l-3-3c0.4-0.1,0.9,0,1.3,0.1c0.4,0.1,0.8,0.4,1,0.7c0.3,0.3,0.5,0.6,0.6,1
	C14.7,11.1,14.7,11.4,14.7,11.8z"/>
</svg>
