<svg width="36" height="36" viewBox="0 0 36 36" fill="none" xmlns="http://www.w3.org/2000/svg">
    <mask id="mask0_150_1029" style="mask-type:alpha" maskUnits="userSpaceOnUse" x="0" y="0" width="36" height="36">
        <rect width="36" height="36" fill="#D9D9D9"/>
    </mask>
    <g mask="url(#mask0_150_1029)">
        <path d="M18 19.75L10.3 27.45C10.0583 27.6917 9.76667 27.8125 9.425 27.8125C9.08335 27.8125 8.79169 27.6917 8.55001 27.45C8.30834 27.2083 8.1875 26.9167 8.1875 26.575C8.1875 26.2334 8.30834 25.9417 8.55001 25.7L16.25 18L8.55001 10.3C8.30834 10.0583 8.1875 9.76667 8.1875 9.425C8.1875 9.08335 8.30834 8.79169 8.55001 8.55001C8.79169 8.30834 9.08335 8.1875 9.425 8.1875C9.76667 8.1875 10.0583 8.30834 10.3 8.55001L18 16.25L25.7 8.55001C25.9417 8.30834 26.2334 8.1875 26.575 8.1875C26.9167 8.1875 27.2083 8.30834 27.45 8.55001C27.6917 8.79169 27.8125 9.08335 27.8125 9.425C27.8125 9.76667 27.6917 10.0583 27.45 10.3L19.75 18L27.45 25.7C27.6917 25.9417 27.8125 26.2334 27.8125 26.575C27.8125 26.9167 27.6917 27.2083 27.45 27.45C27.2083 27.6917 26.9167 27.8125 26.575 27.8125C26.2334 27.8125 25.9417 27.6917 25.7 27.45L18 19.75Z" fill="#1C1B1F"/>
    </g>
</svg>
