<?xml version="1.0" encoding="utf-8"?>
<!-- Generator: Adobe Illustrator 27.2.0, SVG Export Plug-In . SVG Version: 6.00 Build 0)  -->
<svg version="1.1" id="레이어_1" xmlns="http://www.w3.org/2000/svg" xmlns:xlink="http://www.w3.org/1999/xlink" x="0px"
	 y="0px" viewBox="0 0 24 24" style="enable-background:new 0 0 24 24;" xml:space="preserve">
<style type="text/css">
	.st0{fill:#E89842;}
</style>
<path class="st0" d="M14.2,21.4c-0.4,0.4-0.9,0.6-1.4,0.6c-0.6,0-1-0.2-1.4-0.6l-8.8-8.8c-0.2-0.2-0.3-0.4-0.4-0.6
	C2.1,11.7,2,11.4,2,11.1V4c0-0.5,0.2-1,0.6-1.4S3.5,2,4,2h7.2c0.3,0,0.5,0.1,0.8,0.2s0.5,0.3,0.7,0.4l8.8,8.8
	c0.4,0.4,0.6,0.9,0.6,1.4s-0.2,1-0.6,1.4L14.2,21.4z M6.5,8c0.4,0,0.8-0.1,1.1-0.4C7.9,7.3,8,6.9,8,6.5c0-0.4-0.1-0.8-0.4-1.1
	C7.3,5.1,6.9,5,6.5,5S5.7,5.1,5.4,5.4C5.1,5.7,5,6.1,5,6.5c0,0.4,0.1,0.8,0.4,1.1C5.7,7.9,6.1,8,6.5,8z"/>
</svg>
