<?xml version="1.0" encoding="utf-8"?>
<!-- Generator: Adobe Illustrator 27.2.0, SVG Export Plug-In . SVG Version: 6.00 Build 0)  -->
<svg version="1.1" id="레이어_1" xmlns="http://www.w3.org/2000/svg" xmlns:xlink="http://www.w3.org/1999/xlink" x="0px"
	 y="0px" viewBox="0 0 24 24" style="enable-background:new 0 0 24 24;" xml:space="preserve">
<style type="text/css">
	.st0{fill:#4F77DB;}
</style>
<path class="st0" d="M3,21c-0.3,0-0.5-0.1-0.7-0.3C2.1,20.5,2,20.3,2,20s0.1-0.5,0.3-0.7C2.5,19.1,2.7,19,3,19h18
	c0.3,0,0.5,0.1,0.7,0.3c0.2,0.2,0.3,0.4,0.3,0.7s-0.1,0.5-0.3,0.7C21.5,20.9,21.3,21,21,21H3z M4.5,18c-0.4,0-0.8-0.1-1.1-0.4
	S3,16.9,3,16.5v-4c0-0.4,0.1-0.8,0.4-1.1C3.7,11.1,4.1,11,4.5,11c0.4,0,0.8,0.1,1.1,0.4C5.9,11.7,6,12.1,6,12.5v4
	c0,0.4-0.1,0.8-0.4,1.1C5.3,17.9,4.9,18,4.5,18z M9.5,18c-0.4,0-0.8-0.1-1.1-0.4C8.1,17.3,8,16.9,8,16.5v-9c0-0.4,0.1-0.8,0.4-1.1
	C8.7,6.1,9.1,6,9.5,6c0.4,0,0.8,0.1,1.1,0.4C10.9,6.7,11,7.1,11,7.5v9c0,0.4-0.1,0.8-0.4,1.1C10.3,17.9,9.9,18,9.5,18z M14.5,18
	c-0.4,0-0.8-0.1-1.1-0.4S13,16.9,13,16.5v-6c0-0.4,0.1-0.8,0.4-1.1S14.1,9,14.5,9s0.8,0.1,1.1,0.4s0.4,0.6,0.4,1.1v6
	c0,0.4-0.1,0.8-0.4,1.1S14.9,18,14.5,18z M19.5,18c-0.4,0-0.8-0.1-1.1-0.4c-0.3-0.3-0.4-0.6-0.4-1.1v-12c0-0.4,0.1-0.8,0.4-1.1
	C18.7,3.1,19.1,3,19.5,3c0.4,0,0.8,0.1,1.1,0.4C20.9,3.7,21,4.1,21,4.5v12c0,0.4-0.1,0.8-0.4,1.1C20.3,17.9,19.9,18,19.5,18z"/>
</svg>
