<svg width="24" height="24" viewBox="0 0 24 24" fill="none" xmlns="http://www.w3.org/2000/svg">
    <mask id="mask0_185_67" style="mask-type:alpha" maskUnits="userSpaceOnUse" x="0" y="0" width="24" height="24">
        <rect width="24" height="24" fill="#CCDEEB"/>
    </mask>
    <g mask="url(#mask0_185_67)">
        <mask id="mask1_185_67" style="mask-type:alpha" maskUnits="userSpaceOnUse" x="0" y="0" width="24" height="24">
            <rect width="24" height="24" fill="#1892EB"/>
        </mask>
        <g mask="url(#mask1_185_67)">
            <path d="M6 18.9999V12.3499C5.13333 12.1166 4.41667 11.6499 3.85 10.9499C3.28333 10.2499 3 9.43324 3 8.4999C3 7.61657 3.25417 6.83324 3.7625 6.1499C4.27083 5.46657 4.925 4.99157 5.725 4.7249C6.10833 3.9249 6.67917 3.2749 7.4375 2.7749C8.19583 2.2749 9.05 2.0249 10 2.0249C10.5833 2.0249 11.1292 2.1249 11.6375 2.3249C12.1458 2.5249 12.6083 2.79157 13.025 3.1249C13.1917 3.09157 13.35 3.0624 13.5 3.0374C13.65 3.0124 13.8167 2.9999 14 2.9999C15.1 2.9999 16.0417 3.39157 16.825 4.1749C17.6083 4.95824 18 5.8999 18 6.9999C18 7.36657 17.9542 7.71657 17.8625 8.0499C17.7708 8.38324 17.6333 8.6999 17.45 8.9999H19C19.55 8.9999 20.0208 9.19574 20.4125 9.5874C20.8042 9.97907 21 10.4499 21 10.9999V16.9999C21 17.5499 20.8042 18.0207 20.4125 18.4124C20.0208 18.8041 19.55 18.9999 19 18.9999H17C16.65 19.3499 16.3625 19.7707 16.1375 20.2624C15.9125 20.7541 15.5333 20.9999 15 20.9999H8C7.45 20.9999 6.97917 20.8041 6.5875 20.4124C6.19583 20.0207 6 19.5499 6 18.9999ZM5 8.4999C5 9.0499 5.19583 9.52074 5.5875 9.9124C5.97917 10.3041 6.45 10.4999 7 10.4999C7.53333 10.4999 7.9875 10.3249 8.3625 9.9749C8.7375 9.6249 9.125 9.23324 9.525 8.7999C9.94167 8.3499 10.4125 7.9374 10.9375 7.5624C11.4625 7.1874 12.15 6.9999 13 6.9999H16C16 6.4499 15.8042 5.97907 15.4125 5.5874C15.0208 5.19574 14.55 4.9999 14 4.9999C13.5833 4.9999 13.2333 5.05407 12.95 5.1624L12.525 5.3249L11.75 4.6749C11.5667 4.5249 11.3292 4.37907 11.0375 4.2374C10.7458 4.09574 10.4 4.0249 10 4.0249C9.46667 4.0249 8.97917 4.16657 8.5375 4.4499C8.09583 4.73324 7.75833 5.11657 7.525 5.5999L7.175 6.3499L6.375 6.6249C5.95833 6.75824 5.625 6.99574 5.375 7.3374C5.125 7.67907 5 8.06657 5 8.4999ZM17 16.9999H19V10.9999H17V16.9999Z" fill="#1892EB"/>
        </g>
    </g>
</svg>
