<svg width="24" height="24" viewBox="0 0 24 24" fill="none" xmlns="http://www.w3.org/2000/svg">
    <mask id="mask0_194_2884" style="mask-type:alpha" maskUnits="userSpaceOnUse" x="0" y="0" width="24" height="24">
        <rect width="24" height="24" fill="#D9D9D9"/>
    </mask>
    <g mask="url(#mask0_194_2884)">
        <path d="M17.9 20.075C17.7667 20.075 17.6417 20.0542 17.525 20.0125C17.4083 19.9708 17.3 19.9 17.2 19.8L14.4 17C14.1833 16.7833 14.0292 16.55 13.9375 16.3C13.8458 16.05 13.8 15.8 13.8 15.55C13.8 15.0167 13.9917 14.5417 14.375 14.125C14.7583 13.7083 15.25 13.5 15.85 13.5C16.3167 13.5 16.6833 13.6083 16.95 13.825C17.2167 14.0417 17.5333 14.3333 17.9 14.7C18.2333 14.3667 18.5375 14.0833 18.8125 13.85C19.0875 13.6167 19.4667 13.5 19.95 13.5C20.5667 13.5 21.0625 13.7125 21.4375 14.1375C21.8125 14.5625 22 15.0417 22 15.575C22 15.825 21.95 16.075 21.85 16.325C21.75 16.575 21.6 16.8 21.4 17L18.6 19.8C18.5 19.9 18.3917 19.9708 18.275 20.0125C18.1583 20.0542 18.0333 20.075 17.9 20.075ZM4 20C3.45 20 2.97917 19.8042 2.5875 19.4125C2.19583 19.0208 2 18.55 2 18V6C2 5.45 2.19583 4.97917 2.5875 4.5875C2.97917 4.19583 3.45 4 4 4H20C20.55 4 21.0208 4.19583 21.4125 4.5875C21.8042 4.97917 22 5.45 22 6V11.325C21.7 11.1083 21.3833 10.9167 21.05 10.75C20.7167 10.5833 20.3667 10.4417 20 10.325V8H4V12H13C12.35 12.6333 11.8375 13.3792 11.4625 14.2375C11.0875 15.0958 10.9 16.0167 10.9 17C10.9 17.5333 10.9583 18.0542 11.075 18.5625C11.1917 19.0708 11.3583 19.55 11.575 20H4Z" fill="#F436B3"/>
    </g>
</svg>
