<?xml version="1.0" encoding="utf-8"?>
<!-- Generator: Adobe Illustrator 27.2.0, SVG Export Plug-In . SVG Version: 6.00 Build 0)  -->
<svg version="1.1" id="레이어_1" xmlns="http://www.w3.org/2000/svg" xmlns:xlink="http://www.w3.org/1999/xlink" x="0px"
	 y="0px" viewBox="0 0 24 24" style="enable-background:new 0 0 24 24;" xml:space="preserve">
<style type="text/css">
	.st0{fill:#E56A9C;}
</style>
<path class="st0" d="M3,22v-2h2v-3.2c-0.6-0.2-1.1-0.6-1.4-1.1S3,14.6,3,14V6h6v8c0,0.6-0.2,1.2-0.6,1.7S7.6,16.6,7,16.8V20h2v2H3z
	 M5,11h2V8H5V11z M13,22c-0.6,0-1-0.2-1.4-0.6S11,20.5,11,20v-9.6c0-0.4,0.1-0.8,0.4-1.2s0.6-0.6,1-0.7l0.9-0.4
	c0.2-0.1,0.4-0.2,0.5-0.4C13.9,7.7,14,7.5,14,7.2V3c0-0.3,0.1-0.5,0.3-0.7C14.5,2.1,14.7,2,15,2h3c0.3,0,0.5,0.1,0.7,0.3
	C18.9,2.5,19,2.7,19,3v4.2c0,0.2,0.1,0.4,0.2,0.6c0.1,0.2,0.3,0.3,0.5,0.4l0.9,0.4c0.4,0.1,0.7,0.4,1,0.7S22,10,22,10.4V20
	c0,0.5-0.2,1-0.6,1.4S20.6,22,20,22H13z M16,5h1V4h-1V5z M13,12h7v-1.6l-0.9-0.4c-0.6-0.2-1.1-0.6-1.5-1.1C17.2,8.5,17,7.9,17,7.3V7
	h-1v0.3c0,0.6-0.2,1.2-0.6,1.7c-0.4,0.5-0.9,0.9-1.5,1.1L13,10.4V12z M13,20h7v-2h-7V20z"/>
</svg>
