<?xml version="1.0" encoding="utf-8"?>
<!-- Generator: Adobe Illustrator 28.2.0, SVG Export Plug-In . SVG Version: 6.00 Build 0)  -->
<svg version="1.1" id="레이어_1" xmlns="http://www.w3.org/2000/svg" xmlns:xlink="http://www.w3.org/1999/xlink" x="0px"
	 y="0px" viewBox="0 0 48 48" style="enable-background:new 0 0 48 48;" xml:space="preserve">
<style type="text/css">
	.st0{fill:#2ECFCB;}
</style>
<g>
	<path class="st0" d="M30.18,27.37c-0.09-0.55-0.24-1.09-0.47-1.59c-0.7-1.52-1.68-2.79-3.15-3.64c-2.28-1.33-5.04-1.32-7.29,0.05
		c-1.02,0.62-1.86,1.51-2.4,2.57c-0.18,0.36-0.33,0.74-0.45,1.13c-0.6,1.89-0.57,4.43,0.5,6.15c0.35,0.56,0.86,1.04,1.47,1.28
		c0.62,0.24,1.35,0.21,1.91-0.15c0.72-0.46,0.85-1.35,0.71-2.13c-0.17-1-0.3-1.99,0.07-2.98c0.12-0.31,0.29-0.62,0.53-0.85
		c0.15-0.14,0.32-0.26,0.5-0.34c0.39-0.19,0.83-0.28,1.26-0.21c0.75,0.12,1.36,0.7,1.69,1.38c0.33,0.68,0.42,1.45,0.46,2.2
		c0.16,3.29-0.63,6.7-1.47,9.87c-0.09,0.33-0.18,0.65-0.27,0.97c-0.07,0.25-0.2,0.57-0.04,0.81c0.07,0.1,0.18,0.18,0.29,0.22
		c0.49,0.2,0.89-0.1,1.21-0.43c1.93-1.94,3.17-4.45,4.01-7.02c0.32-0.96,0.59-1.94,0.77-2.94C30.28,30.36,30.42,28.81,30.18,27.37"
		/>
	<path class="st0" d="M44,12.15c0-0.49-0.44-0.82-0.91-0.8c-0.48,0.02-0.92,0.26-1.36,0.43c-8.49,3.23-18.07,3.84-27.02,2.55
		c-1.53-0.22-3.08-0.53-4.62-0.77c-0.96-0.15-1.92-0.37-2.89-0.44c-0.83-0.06-1.86-0.09-2.53,0.48c-0.88,0.76-0.82,2.21-0.32,3.16
		c0.6,1.14,1.65,2,2.75,2.66c1.06,0.63,2.33,1.31,3.6,1.23c3.42-0.22,6.83-0.55,10.23-0.99c5.8-0.75,11.87-1.46,17.32-3.71
		c1.78-0.74,3.54-1.65,5.06-2.84C43.6,12.9,44,12.55,44,12.15"/>
	<path class="st0" d="M19.65,9.24c0,1.84,1.5,3.34,3.34,3.34c1.84,0,3.34-1.49,3.34-3.34c0-0.27-0.06-0.55-0.18-0.8
		c-0.28-0.61-0.61-0.9-0.57-1.63c0.04-0.98-1.22-1-1.89-1c-0.74,0-1.52,0.1-2.19,0.44c-0.53,0.27-0.99,0.68-1.31,1.18
		c-0.33,0.51-0.52,1.12-0.53,1.73C19.65,9.19,19.65,9.21,19.65,9.24"/>
</g>
</svg>
