<?xml version="1.0" encoding="utf-8"?>
<!-- Generator: Adobe Illustrator 28.3.0, SVG Export Plug-In . SVG Version: 6.00 Build 0)  -->
<svg version="1.1" id="레이어_1" xmlns="http://www.w3.org/2000/svg" xmlns:xlink="http://www.w3.org/1999/xlink" x="0px"
	 y="0px" viewBox="0 0 24 24" style="enable-background:new 0 0 24 24;" xml:space="preserve">
<style type="text/css">
	.st0{fill:#9CB0BE;}
</style>
<path class="st0" d="M5.6,14.2C5,14.2,4.4,14,4,13.6c-0.4-0.4-0.7-1-0.7-1.6c0-0.6,0.2-1.1,0.6-1.6C4.4,10,5,9.8,5.6,9.8
	c0.6,0,1.1,0.2,1.6,0.6c0.4,0.4,0.7,0.9,0.7,1.6c0,0.6-0.2,1.1-0.7,1.6C6.7,14,6.2,14.2,5.6,14.2z M12,14.2c-0.6,0-1.1-0.2-1.6-0.6
	c-0.4-0.4-0.7-1-0.7-1.6c0-0.6,0.2-1.1,0.6-1.6c0.4-0.4,1-0.6,1.6-0.6c0.6,0,1.1,0.2,1.6,0.6c0.4,0.4,0.6,0.9,0.6,1.6
	c0,0.6-0.2,1.1-0.6,1.6C13.1,14,12.6,14.2,12,14.2z M18.4,14.2c-0.6,0-1.1-0.2-1.6-0.6c-0.4-0.4-0.7-1-0.7-1.6
	c0-0.6,0.2-1.1,0.7-1.6c0.4-0.4,1-0.6,1.6-0.6c0.6,0,1.1,0.2,1.6,0.6c0.4,0.4,0.6,0.9,0.6,1.6c0,0.6-0.2,1.1-0.6,1.6
	S19.1,14.2,18.4,14.2z"/>
</svg>
