<?xml version="1.0" encoding="utf-8"?>
<!-- Generator: Adobe Illustrator 28.3.0, SVG Export Plug-In . SVG Version: 6.00 Build 0)  -->
<svg version="1.1" id="레이어_1" xmlns="http://www.w3.org/2000/svg" xmlns:xlink="http://www.w3.org/1999/xlink" x="0px"
	 y="0px" viewBox="0 0 24 24" style="enable-background:new 0 0 24 24;" xml:space="preserve">
<style type="text/css">
	.st0{fill:#1892EB;}
</style>
<path class="st0" d="M12.7,12l-2.4,2.4c-0.2,0.2-0.3,0.4-0.3,0.7c0,0.3,0.1,0.5,0.3,0.7c0.2,0.2,0.4,0.3,0.7,0.3
	c0.3,0,0.5-0.1,0.7-0.3l3.1-3.1c0.2-0.2,0.3-0.4,0.3-0.7s-0.1-0.5-0.3-0.7l-3.1-3.1C11.5,8,11.3,7.9,11,7.9c-0.3,0-0.5,0.1-0.7,0.3
	C10.1,8.4,10,8.7,10,8.9c0,0.3,0.1,0.5,0.3,0.7L12.7,12z M12,22c-1.4,0-2.7-0.3-3.9-0.8S5.8,20,4.9,19.1c-0.9-0.9-1.6-2-2.1-3.2
	S2,13.4,2,12s0.3-2.7,0.8-3.9S4,5.8,4.9,4.9s2-1.6,3.2-2.1S10.6,2,12,2s2.7,0.3,3.9,0.8s2.3,1.2,3.2,2.1s1.6,2,2.1,3.2
	C21.7,9.3,22,10.6,22,12s-0.3,2.7-0.8,3.9c-0.5,1.2-1.2,2.3-2.1,3.2c-0.9,0.9-2,1.6-3.2,2.1S13.4,22,12,22z"/>
</svg>
