<svg width="24" height="24" viewBox="0 0 24 24" fill="none" xmlns="http://www.w3.org/2000/svg">
    <mask id="mask0_194_2890" style="mask-type:alpha" maskUnits="userSpaceOnUse" x="0" y="0" width="24" height="24">
        <rect width="24" height="24" fill="#D9D9D9"/>
    </mask>
    <g mask="url(#mask0_194_2890)">
        <path d="M12 17C12.2833 17 12.5208 16.9042 12.7125 16.7125C12.9042 16.5208 13 16.2833 13 16C13 15.7167 12.9042 15.4792 12.7125 15.2875C12.5208 15.0958 12.2833 15 12 15C11.7167 15 11.4792 15.0958 11.2875 15.2875C11.0958 15.4792 11 15.7167 11 16C11 16.2833 11.0958 16.5208 11.2875 16.7125C11.4792 16.9042 11.7167 17 12 17ZM12 13C12.2833 13 12.5208 12.9042 12.7125 12.7125C12.9042 12.5208 13 12.2833 13 12V8C13 7.71667 12.9042 7.47917 12.7125 7.2875C12.5208 7.09583 12.2833 7 12 7C11.7167 7 11.4792 7.09583 11.2875 7.2875C11.0958 7.47917 11 7.71667 11 8V12C11 12.2833 11.0958 12.5208 11.2875 12.7125C11.4792 12.9042 11.7167 13 12 13ZM8.65 20H6C5.45 20 4.97917 19.8042 4.5875 19.4125C4.19583 19.0208 4 18.55 4 18V15.35L2.075 13.4C1.89167 13.2 1.75 12.9792 1.65 12.7375C1.55 12.4958 1.5 12.25 1.5 12C1.5 11.75 1.55 11.5042 1.65 11.2625C1.75 11.0208 1.89167 10.8 2.075 10.6L4 8.65V6C4 5.45 4.19583 4.97917 4.5875 4.5875C4.97917 4.19583 5.45 4 6 4H8.65L10.6 2.075C10.8 1.89167 11.0208 1.75 11.2625 1.65C11.5042 1.55 11.75 1.5 12 1.5C12.25 1.5 12.4958 1.55 12.7375 1.65C12.9792 1.75 13.2 1.89167 13.4 2.075L15.35 4H18C18.55 4 19.0208 4.19583 19.4125 4.5875C19.8042 4.97917 20 5.45 20 6V8.65L21.925 10.6C22.1083 10.8 22.25 11.0208 22.35 11.2625C22.45 11.5042 22.5 11.75 22.5 12C22.5 12.25 22.45 12.4958 22.35 12.7375C22.25 12.9792 22.1083 13.2 21.925 13.4L20 15.35V18C20 18.55 19.8042 19.0208 19.4125 19.4125C19.0208 19.8042 18.55 20 18 20H15.35L13.4 21.925C13.2 22.1083 12.9792 22.25 12.7375 22.35C12.4958 22.45 12.25 22.5 12 22.5C11.75 22.5 11.5042 22.45 11.2625 22.35C11.0208 22.25 10.8 22.1083 10.6 21.925L8.65 20Z" fill="#EF2020"/>
    </g>
</svg>
