<svg width="24" height="24" viewBox="0 0 24 24" fill="none" xmlns="http://www.w3.org/2000/svg">
    <mask id="mask0_150_13627" style="mask-type:alpha" maskUnits="userSpaceOnUse" x="0" y="0" width="24" height="24">
        <rect width="24" height="24" fill="#9CB0BE"/>
    </mask>
    <g mask="url(#mask0_150_13627)">
        <path d="M12 21.9999C10.75 21.9999 9.57917 21.7652 8.4875 21.2958C7.39583 20.8263 6.44306 20.1847 5.62918 19.3708C4.81528 18.5569 4.17361 17.6041 3.70418 16.5124C3.23473 15.4208 3 14.2499 3 12.9999H4.66665C4.66665 15.0388 5.37915 16.7708 6.80415 18.1958C8.22917 19.6208 9.96112 20.3333 12 20.3333C14.0389 20.3333 15.7708 19.6208 17.1959 18.1958C18.6209 16.7708 19.3334 15.0388 19.3334 12.9999C19.3334 10.961 18.6347 9.22909 17.2375 7.80408C15.8403 6.37908 14.1222 5.66658 12.0833 5.66658H11.65L13.3833 7.39993L12.2334 8.58325L8.45003 4.79993L12.2334 1.0166L13.3833 2.18325L11.5667 3.99993H12C13.25 3.99993 14.4208 4.23465 15.5125 4.7041C16.6042 5.17354 17.5569 5.8152 18.3708 6.6291C19.1847 7.44299 19.8264 8.39576 20.2958 9.48743C20.7653 10.5791 21 11.7499 21 12.9999C21 14.2499 20.7653 15.4208 20.2958 16.5124C19.8264 17.6041 19.1847 18.5569 18.3708 19.3708C17.5569 20.1847 16.6042 20.8263 15.5125 21.2958C14.4208 21.7652 13.25 21.9999 12 21.9999Z" fill="#7B8A94"/>
    </g>
</svg>
