<?xml version="1.0" encoding="utf-8"?>
<!-- Generator: Adobe Illustrator 28.3.0, SVG Export Plug-In . SVG Version: 6.00 Build 0)  -->
<svg version="1.1" id="레이어_1" xmlns="http://www.w3.org/2000/svg" xmlns:xlink="http://www.w3.org/1999/xlink" x="0px"
	 y="0px" viewBox="0 0 24 24" style="enable-background:new 0 0 24 24;" xml:space="preserve">
<style type="text/css">
	.st0{fill:#9CB0BE;}
</style>
<path class="st0" d="M10.8,22c-0.4,0-0.8-0.1-1.2-0.5c-0.3-0.3-0.5-0.7-0.6-1.1l-0.2-1.7c-0.2-0.1-0.4-0.2-0.6-0.3s-0.4-0.2-0.6-0.4
	l-1.6,0.6C5.7,19,5.3,19,4.9,18.8c-0.4-0.2-0.7-0.4-1-0.8L2.7,16c-0.2-0.4-0.3-0.8-0.2-1.2c0.1-0.4,0.3-0.8,0.7-1.1l1.3-1
	c0-0.1,0-0.2,0-0.3v-0.7c0-0.1,0-0.2,0-0.3l-1.3-1C2.9,10,2.6,9.7,2.5,9.2C2.4,8.8,2.5,8.4,2.7,8l1.2-2c0.2-0.4,0.6-0.7,1-0.8
	C5.3,5,5.7,5,6.1,5.2l1.6,0.6c0.2-0.1,0.4-0.3,0.6-0.4c0.2-0.1,0.4-0.2,0.6-0.3l0.2-1.7c0.1-0.4,0.3-0.8,0.6-1.1S10.4,2,10.8,2h2.4
	c0.4,0,0.8,0.1,1.2,0.4c0.3,0.3,0.5,0.7,0.6,1.1l0.2,1.7c0.2,0.1,0.4,0.2,0.6,0.3c0.2,0.1,0.4,0.2,0.6,0.4l1.5-0.6
	C18.3,5,18.7,5,19.1,5.2c0.4,0.2,0.7,0.4,1,0.8l1.2,2c0.2,0.4,0.3,0.8,0.2,1.2c-0.1,0.4-0.3,0.8-0.7,1.1l-1.3,1c0,0.1,0,0.2,0,0.3
	v0.7c0,0.1,0,0.2,0,0.3l1.3,1c0.4,0.3,0.6,0.6,0.7,1.1s0,0.8-0.2,1.2L20.1,18c-0.2,0.4-0.6,0.6-1,0.8c-0.4,0.1-0.8,0.1-1.2-0.1
	l-1.5-0.6c-0.2,0.1-0.4,0.3-0.6,0.4s-0.4,0.2-0.6,0.3l-0.2,1.7c-0.1,0.4-0.3,0.8-0.6,1.1C14,21.9,13.6,22,13.2,22H10.8z M12.1,15.5
	c1,0,1.8-0.3,2.5-1c0.7-0.7,1-1.5,1-2.5s-0.3-1.8-1-2.5c-0.7-0.7-1.5-1-2.5-1c-1,0-1.8,0.3-2.5,1c-0.7,0.7-1,1.5-1,2.5
	s0.3,1.8,1,2.5C10.2,15.2,11.1,15.5,12.1,15.5z"/>
</svg>
