<?xml version="1.0" encoding="utf-8"?>
<!-- Generator: Adobe Illustrator 28.3.0, SVG Export Plug-In . SVG Version: 6.00 Build 0)  -->
<svg version="1.1" id="레이어_1" xmlns="http://www.w3.org/2000/svg" xmlns:xlink="http://www.w3.org/1999/xlink" x="0px"
	 y="0px" viewBox="0 0 24 24" style="enable-background:new 0 0 24 24;" xml:space="preserve">
<style type="text/css">
	.st0{fill:#FFDB1E;}
</style>
<path class="st0" d="M12,14.9l2.8,2.1c0.2,0.1,0.4,0.1,0.6,0s0.3-0.3,0.2-0.5l-1.1-3.5l2.7-2c0.2-0.1,0.3-0.3,0.2-0.6
	c-0.1-0.2-0.2-0.3-0.5-0.3h-3.3l-1.1-3.7c-0.1-0.2-0.2-0.3-0.5-0.3s-0.4,0.1-0.5,0.3l-1.1,3.7H7.1c-0.2,0-0.4,0.1-0.5,0.3
	c-0.1,0.2,0,0.4,0.2,0.6l2.7,2l-1.1,3.5c-0.1,0.2,0,0.4,0.2,0.5s0.4,0.1,0.6,0L12,14.9z M12,22c-1.4,0-2.7-0.3-3.9-0.8
	S5.8,20,4.9,19.1c-0.9-0.9-1.6-2-2.1-3.2S2,13.4,2,12s0.3-2.7,0.8-3.9S4,5.8,4.9,4.9s2-1.6,3.2-2.1S10.6,2,12,2s2.7,0.3,3.9,0.8
	s2.3,1.2,3.2,2.1s1.6,2,2.1,3.2C21.7,9.3,22,10.6,22,12s-0.3,2.7-0.8,3.9c-0.5,1.2-1.2,2.3-2.1,3.2c-0.9,0.9-2,1.6-3.2,2.1
	S13.4,22,12,22z"/>
</svg>
