<?xml version="1.0" encoding="utf-8"?>
<!-- Generator: Adobe Illustrator 27.2.0, SVG Export Plug-In . SVG Version: 6.00 Build 0)  -->
<svg version="1.1" id="레이어_1" xmlns="http://www.w3.org/2000/svg" xmlns:xlink="http://www.w3.org/1999/xlink" x="0px"
	 y="0px" viewBox="0 0 24 24" style="enable-background:new 0 0 24 24;" xml:space="preserve">
<style type="text/css">
	.st0{fill:#36B242;}
</style>
<path class="st0" d="M3,20c-0.5,0-1-0.2-1.4-0.6S1,18.5,1,18V8c0-0.3,0.1-0.5,0.3-0.7C1.5,7.1,1.7,7,2,7s0.5,0.1,0.7,0.3
	C2.9,7.5,3,7.7,3,8v10h16c0.3,0,0.5,0.1,0.7,0.3c0.2,0.2,0.3,0.4,0.3,0.7s-0.1,0.5-0.3,0.7C19.5,19.9,19.3,20,19,20H3z M7,16
	c-0.5,0-1-0.2-1.4-0.6S5,14.6,5,14V6c0-0.5,0.2-1,0.6-1.4C6,4.2,6.5,4,7,4h14c0.6,0,1,0.2,1.4,0.6C22.8,5,23,5.4,23,6v8
	c0,0.6-0.2,1-0.6,1.4S21.6,16,21,16H7z M9,14c0-0.6-0.2-1-0.6-1.4S7.6,12,7,12v2H9z M19,14h2v-2c-0.5,0-1,0.2-1.4,0.6
	C19.2,13,19,13.4,19,14z M14,13c0.8,0,1.5-0.3,2.1-0.9c0.6-0.6,0.9-1.3,0.9-2.1s-0.3-1.5-0.9-2.1C15.5,7.3,14.8,7,14,7
	s-1.5,0.3-2.1,0.9C11.3,8.5,11,9.2,11,10s0.3,1.5,0.9,2.1C12.5,12.7,13.2,13,14,13z M7,8c0.6,0,1-0.2,1.4-0.6C8.8,7,9,6.5,9,6H7V8z
	 M21,8V6h-2c0,0.6,0.2,1,0.6,1.4C20,7.8,20.5,8,21,8z"/>
</svg>
