<svg width="24" height="24" viewBox="0 0 24 24" fill="none" xmlns="http://www.w3.org/2000/svg">
    <mask id="mask0_194_2136" style="mask-type:alpha" maskUnits="userSpaceOnUse" x="0" y="0" width="24" height="24">
        <rect x="24" y="24" width="24" height="24" transform="rotate(-180 24 24)" fill="#1892EB"/>
    </mask>
    <g mask="url(#mask0_194_2136)">
        <path d="M11.325 12L13.7 9.625C13.8833 9.44167 13.975 9.2125 13.975 8.9375C13.975 8.6625 13.8833 8.425 13.7 8.225C13.5 8.025 13.2625 7.925 12.9875 7.925C12.7125 7.925 12.475 8.025 12.275 8.225L9.2 11.3C9 11.5 8.9 11.7333 8.9 12C8.9 12.2667 9 12.5 9.2 12.7L12.3 15.8C12.5 16 12.7333 16.0958 13 16.0875C13.2667 16.0792 13.5 15.975 13.7 15.775C13.8833 15.575 13.9792 15.3417 13.9875 15.075C13.9958 14.8083 13.9 14.575 13.7 14.375L11.325 12ZM12 2C13.3833 2 14.6833 2.2625 15.9 2.7875C17.1167 3.3125 18.175 4.025 19.075 4.925C19.975 5.825 20.6875 6.88333 21.2125 8.1C21.7375 9.31667 22 10.6167 22 12C22 13.3833 21.7375 14.6833 21.2125 15.9C20.6875 17.1167 19.975 18.175 19.075 19.075C18.175 19.975 17.1167 20.6875 15.9 21.2125C14.6833 21.7375 13.3833 22 12 22C10.6167 22 9.31667 21.7375 8.1 21.2125C6.88333 20.6875 5.825 19.975 4.925 19.075C4.025 18.175 3.3125 17.1167 2.7875 15.9C2.2625 14.6833 2 13.3833 2 12C2 10.6167 2.2625 9.31666 2.7875 8.1C3.3125 6.88333 4.025 5.825 4.925 4.925C5.825 4.025 6.88333 3.3125 8.1 2.7875C9.31667 2.2625 10.6167 2 12 2Z" fill="#CCDEEB"/>
    </g>
</svg>
