<?xml version="1.0" encoding="utf-8"?>
<!-- Generator: Adobe Illustrator 28.3.0, SVG Export Plug-In . SVG Version: 6.00 Build 0)  -->
<svg version="1.1" id="레이어_1" xmlns="http://www.w3.org/2000/svg" xmlns:xlink="http://www.w3.org/1999/xlink" x="0px"
	 y="0px" viewBox="0 0 24 24" style="enable-background:new 0 0 24 24;" xml:space="preserve">
<style type="text/css">
	.st0{fill:#FFFFFF;}
</style>
<path class="st0" d="M12,16c1.2,0,2.3-0.4,3.2-1.3s1.3-1.9,1.3-3.2s-0.4-2.3-1.3-3.2S13.2,7,12,7S9.7,7.4,8.8,8.3s-1.3,1.9-1.3,3.2
	s0.4,2.3,1.3,3.2S10.8,16,12,16z M12,14.2c-0.8,0-1.4-0.3-1.9-0.8c-0.5-0.5-0.8-1.2-0.8-1.9s0.3-1.4,0.8-1.9
	c0.5-0.5,1.2-0.8,1.9-0.8s1.4,0.3,1.9,0.8c0.5,0.5,0.8,1.2,0.8,1.9s-0.3,1.4-0.8,1.9C13.4,13.9,12.8,14.2,12,14.2z M12,19
	c-2.2,0-4.3-0.6-6.1-1.8C4,16,2.6,14.4,1.5,12.4c-0.1-0.1-0.1-0.3-0.2-0.5c0-0.2-0.1-0.3-0.1-0.5c0-0.2,0-0.3,0.1-0.5
	c0-0.2,0.1-0.3,0.2-0.5C2.6,8.6,4,7,5.9,5.8S9.8,4,12,4s4.3,0.6,6.1,1.8s3.3,2.8,4.4,4.8c0.1,0.1,0.1,0.3,0.2,0.5s0.1,0.3,0.1,0.5
	c0,0.2,0,0.3-0.1,0.5c0,0.2-0.1,0.3-0.2,0.5c-1.1,2-2.5,3.6-4.4,4.8C16.3,18.4,14.2,19,12,19z"/>
</svg>
