<svg width="36" height="36" viewBox="0 0 36 36" fill="none" xmlns="http://www.w3.org/2000/svg">
    <mask id="mask0_105_1579" style="mask-type:alpha" maskUnits="userSpaceOnUse" x="0" y="0" width="36" height="36">
        <rect width="36" height="36" fill="#D9D9D9"/>
    </mask>
    <g mask="url(#mask0_105_1579)">
        <path d="M7.24999 28.5C6.89166 28.5 6.59375 28.3813 6.35625 28.1438C6.11875 27.9063 6 27.6084 6 27.25C6 26.8917 6.11875 26.5938 6.35625 26.3563C6.59375 26.1188 6.89166 26 7.24999 26H9V14.9C9 12.8084 9.62084 10.9396 10.8625 9.29376C12.1042 7.64794 13.7333 6.60002 15.75 6.15002V5.25002C15.75 4.62502 15.9688 4.09377 16.4063 3.65627C16.8438 3.21877 17.375 3.00002 18 3.00002C18.625 3.00002 19.1563 3.21877 19.5938 3.65627C20.0313 4.09377 20.25 4.62502 20.25 5.25002V6.15002C22.2667 6.60002 23.8958 7.64794 25.1375 9.29376C26.3792 10.9396 27 12.8084 27 14.9V26H28.75C29.1083 26 29.4063 26.1188 29.6438 26.3563C29.8813 26.5938 30 26.8917 30 27.25C30 27.6084 29.8813 27.9063 29.6438 28.1438C29.4063 28.3813 29.1083 28.5 28.75 28.5H7.24999ZM18 33C17.175 33 16.4688 32.7063 15.8813 32.1188C15.2938 31.5313 15 30.825 15 30H21C21 30.825 20.7063 31.5313 20.1188 32.1188C19.5313 32.7063 18.825 33 18 33Z" fill="#989898"/>
    </g>
</svg>
